<?xml version="1.0" standalone="no"?>
<!DOCTYPE svg PUBLIC "-//W3C//DTD SVG 20010904//EN"
 "http://www.w3.org/TR/2001/REC-SVG-20010904/DTD/svg10.dtd">
<svg version="1.0" xmlns="http://www.w3.org/2000/svg"
 width="618.000000pt" height="618.000000pt" viewBox="0 0 618.000000 618.000000"
 preserveAspectRatio="xMidYMid meet">
<metadata>
Created by potrace 1.11, written by Peter Selinger 2001-2013
</metadata>
<g transform="translate(0.000000,618.000000) scale(0.100000,-0.100000)"
fill="#000000" stroke="none">
<path d="M1613 5408 c-19 -9 -63 -83 -63 -107 0 -9 -218 -723 -222 -726 -2 -2
-434 173 -543 220 -11 4 -22 9 -25 10 -3 1 -22 9 -44 18 -21 9 -41 17 -43 17
-5 0 -26 9 -115 49 -79 35 -129 25 -153 -32 -17 -42 -4 -75 48 -118 119 -100
497 -408 516 -421 20 -14 21 -17 5 -20 -16 -3 -18 -15 -19 -99 -1 -101 -1
-102 -57 -164 -27 -30 -379 -441 -453 -528 -22 -26 -43 -58 -46 -71 -14 -53
49 -117 100 -101 11 3 59 27 108 54 102 55 277 149 313 168 14 7 27 13 30 13
3 0 5 -370 5 -822 -1 -886 -1 -886 51 -968 30 -49 52 -72 103 -109 94 -67 -40
-63 1986 -63 2006 0 1890 -3 1984 56 42 27 103 92 124 133 39 75 40 88 40
1138 0 561 -3 1042 -7 1070 -17 109 -88 203 -193 256 l-68 34 -1359 2 c-747 1
-1360 3 -1361 5 -2 2 56 37 128 79 337 195 409 239 422 256 37 48 -2 133 -60
133 -15 0 -110 -23 -212 -51 -102 -28 -193 -52 -202 -54 -9 -2 -124 -34 -256
-70 -132 -37 -244 -67 -249 -68 -10 -2 -12 8 -21 115 -4 46 -8 90 -10 98 -2
13 -12 114 -20 205 -3 36 -14 146 -20 195 -2 19 -7 69 -10 110 -3 41 -11 89
-16 106 -14 44 -75 72 -116 52z"/>
</g>
</svg>
